<svg width="131" height="75" viewBox="0 0 131 75" fill="none" xmlns="http://www.w3.org/2000/svg">
<circle opacity="0.8" cx="28.5" cy="28.5" r="28.5" transform="rotate(-90 28.5 28.5)" fill="#FD5550"/>
<circle opacity="0.5" cx="63.5" cy="33.125" r="22.5" transform="rotate(-90 63.5 33.125)" fill="#FD5550"/>
<circle opacity="0.4" cx="91" cy="37.6416" r="16" transform="rotate(-90 91 37.6416)" fill="#9A4B82"/>
<circle opacity="0.8" cx="111" cy="40.3828" r="11" transform="rotate(-90 111 40.3828)" fill="#9A4B82"/>
<circle opacity="0.8" cx="124.5" cy="41.8594" r="6.5" transform="rotate(-90 124.5 41.8594)" fill="#FD5550"/>
<path d="M24.3418 71.999C23.8213 71.999 23.3452 71.9377 22.9136 71.8149C22.4862 71.6922 22.118 71.4976 21.8091 71.231C21.5002 70.9644 21.2611 70.6216 21.0918 70.2026C20.9225 69.7837 20.8379 69.278 20.8379 68.6855C20.8379 67.7334 20.9754 66.8617 21.2505 66.0703C21.5298 65.279 21.9276 64.5913 22.4438 64.0073C22.9474 63.436 23.5758 62.9875 24.3291 62.6616C25.0824 62.3315 25.9097 62.1665 26.811 62.1665C27.1496 62.1665 27.5304 62.1961 27.9536 62.2554C28.3768 62.3104 28.6646 62.3569 28.8169 62.395L28.4932 64.2422L28.252 64.2295C28.1546 64.1745 27.9578 64.1047 27.6616 64.02C27.3696 63.9312 27.0374 63.8867 26.665 63.8867C25.9414 63.8867 25.3236 64.0666 24.8115 64.4263C24.3037 64.786 23.9165 65.3403 23.6499 66.0894C23.9757 65.9243 24.3249 65.7868 24.6973 65.6768C25.0739 65.5667 25.4632 65.5117 25.8652 65.5117C26.7074 65.5117 27.3717 65.7318 27.8584 66.1719C28.3451 66.6077 28.5884 67.2192 28.5884 68.0063C28.5884 69.1532 28.1842 70.1053 27.376 70.8628C26.5719 71.6203 25.5605 71.999 24.3418 71.999ZM26.0811 68.3745C26.0811 67.9344 25.9499 67.6149 25.6875 67.416C25.4251 67.2129 25.0464 67.1113 24.5513 67.1113C24.3354 67.1113 24.126 67.1346 23.9229 67.1812C23.7197 67.2235 23.5526 67.2637 23.4214 67.3018C23.3748 67.4795 23.3325 67.6974 23.2944 67.9556C23.2606 68.2137 23.2437 68.4465 23.2437 68.6538C23.2437 69.2463 23.341 69.6842 23.5356 69.9678C23.7303 70.2513 24.0583 70.3931 24.5195 70.3931C24.9469 70.3931 25.313 70.2048 25.6177 69.8281C25.9266 69.4473 26.0811 68.9627 26.0811 68.3745ZM37.9514 65.2515C37.9514 66.1232 37.8499 66.9759 37.6467 67.8096C37.4436 68.639 37.1453 69.3563 36.7517 69.9614C36.3032 70.6385 35.7784 71.1463 35.1775 71.4849C34.5808 71.8234 33.8995 71.9927 33.1336 71.9927C32.0291 71.9927 31.1827 71.743 30.5945 71.2437C30.0063 70.7401 29.7122 69.9572 29.7122 68.895C29.7122 67.9894 29.8116 67.1367 30.0105 66.3369C30.2094 65.5329 30.5099 64.8156 30.9119 64.1851C31.3139 63.5588 31.8217 63.0636 32.4353 62.6997C33.0532 62.3358 33.7577 62.1538 34.5491 62.1538C35.679 62.1538 36.5274 62.4141 37.0945 62.9346C37.6658 63.4508 37.9514 64.2231 37.9514 65.2515ZM35.5012 65.3467C35.5012 64.8516 35.4102 64.4855 35.2283 64.2485C35.0505 64.0116 34.7839 63.8931 34.4285 63.8931C34.0942 63.8931 33.7789 64.0433 33.4827 64.3438C33.1907 64.6442 32.9389 65.0737 32.7273 65.6323C32.5411 66.119 32.3993 66.6522 32.302 67.2319C32.2089 67.8075 32.1624 68.3301 32.1624 68.7998C32.1624 69.2992 32.2512 69.6673 32.429 69.9043C32.6067 70.137 32.886 70.2534 33.2669 70.2534C33.6308 70.2534 33.9524 70.0905 34.2317 69.7646C34.511 69.4346 34.7459 69.0177 34.9363 68.5142C35.114 68.0444 35.2516 67.526 35.3489 66.959C35.4504 66.3919 35.5012 65.8545 35.5012 65.3467Z" fill="#B7D3E3"/>
<path d="M62.1792 71.7959H55.8696L56.2505 70.1455H58.2373L59.3862 65.1499H57.3994L57.7549 63.6074C58.0469 63.6074 58.341 63.5884 58.6372 63.5503C58.9377 63.5122 59.1873 63.4508 59.3862 63.3662C59.6063 63.2689 59.7967 63.1377 59.9575 62.9727C60.1183 62.8034 60.2368 62.5854 60.313 62.3188H62.4204L60.6177 70.1455H62.5601L62.1792 71.7959ZM72.9514 65.2515C72.9514 66.1232 72.8499 66.9759 72.6467 67.8096C72.4436 68.639 72.1453 69.3563 71.7517 69.9614C71.3032 70.6385 70.7784 71.1463 70.1775 71.4849C69.5808 71.8234 68.8995 71.9927 68.1336 71.9927C67.0291 71.9927 66.1827 71.743 65.5945 71.2437C65.0063 70.7401 64.7122 69.9572 64.7122 68.895C64.7122 67.9894 64.8116 67.1367 65.0105 66.3369C65.2094 65.5329 65.5099 64.8156 65.9119 64.1851C66.3139 63.5588 66.8217 63.0636 67.4353 62.6997C68.0532 62.3358 68.7577 62.1538 69.5491 62.1538C70.679 62.1538 71.5274 62.4141 72.0945 62.9346C72.6658 63.4508 72.9514 64.2231 72.9514 65.2515ZM70.5012 65.3467C70.5012 64.8516 70.4102 64.4855 70.2283 64.2485C70.0505 64.0116 69.7839 63.8931 69.4285 63.8931C69.0942 63.8931 68.7789 64.0433 68.4827 64.3438C68.1907 64.6442 67.9389 65.0737 67.7273 65.6323C67.5411 66.119 67.3993 66.6522 67.302 67.2319C67.2089 67.8075 67.1624 68.3301 67.1624 68.7998C67.1624 69.2992 67.2512 69.6673 67.429 69.9043C67.6067 70.137 67.886 70.2534 68.2669 70.2534C68.6308 70.2534 68.9524 70.0905 69.2317 69.7646C69.511 69.4346 69.7459 69.0177 69.9363 68.5142C70.114 68.0444 70.2516 67.526 70.3489 66.959C70.4504 66.3919 70.5012 65.8545 70.5012 65.3467Z" fill="#B7D3E3"/>
<path d="M94.4106 67.6187H93.1221L92.6143 69.8213H90.2847L90.7925 67.6187H86.2158L86.6284 65.8286L92.3159 60.3442H94.7979L93.522 65.8921H94.8105L94.4106 67.6187ZM91.1924 65.8921L91.9668 62.5405L88.5073 65.8921H91.1924Z" fill="#B7D3E3"/>
<path d="M112.944 69.085C112.525 69.3854 112.049 69.6139 111.516 69.7705C110.987 69.9229 110.395 69.999 109.739 69.999C108.973 69.999 108.289 69.9292 107.688 69.7896C107.088 69.6457 106.597 69.4764 106.216 69.2817L106.66 67.2251L106.908 67.2314C107.293 67.5065 107.724 67.7266 108.203 67.8916C108.681 68.0566 109.153 68.1392 109.618 68.1392C110.299 68.1392 110.831 68.0122 111.211 67.7583C111.597 67.5002 111.789 67.1341 111.789 66.6602C111.789 66.4613 111.751 66.2983 111.675 66.1714C111.603 66.0444 111.484 65.945 111.319 65.873C111.142 65.7926 110.917 65.7419 110.646 65.7207C110.376 65.6953 110.071 65.6826 109.732 65.6826H109.212L109.574 64.0068H110.113C110.981 64.0068 111.586 63.9137 111.929 63.7275C112.276 63.5371 112.449 63.2493 112.449 62.8643C112.449 62.5596 112.303 62.3353 112.011 62.1914C111.723 62.0475 111.324 61.9756 110.812 61.9756C110.371 61.9756 109.91 62.0454 109.428 62.1851C108.945 62.3247 108.514 62.4897 108.133 62.6802L107.898 62.6738L108.336 60.6362C108.713 60.5093 109.18 60.3971 109.739 60.2998C110.302 60.1982 110.852 60.1475 111.389 60.1475C111.931 60.1475 112.415 60.1898 112.843 60.2744C113.27 60.3548 113.636 60.4775 113.941 60.6426C114.263 60.8161 114.51 61.0361 114.684 61.3027C114.861 61.5693 114.95 61.9036 114.95 62.3057C114.95 62.6908 114.882 63.0314 114.747 63.3276C114.616 63.6196 114.438 63.863 114.214 64.0576C113.998 64.248 113.75 64.4046 113.471 64.5273C113.192 64.6501 112.919 64.741 112.652 64.8003L112.633 64.8892C113.095 64.9653 113.48 65.1494 113.789 65.4414C114.102 65.7334 114.258 66.1121 114.258 66.5776C114.258 67.1024 114.14 67.5806 113.903 68.0122C113.666 68.4396 113.346 68.7972 112.944 69.085Z" fill="#B7D3E3"/>
<path d="M127.179 69.7959H120.87L121.25 68.1455H123.237L124.386 63.1499H122.399L122.755 61.6074C123.047 61.6074 123.341 61.5884 123.637 61.5503C123.938 61.5122 124.187 61.4508 124.386 61.3662C124.606 61.2689 124.797 61.1377 124.958 60.9727C125.118 60.8034 125.237 60.5854 125.313 60.3188H127.42L125.618 68.1455H127.56L127.179 69.7959Z" fill="#B7D3E3"/>
</svg>
